<?xml version="1.0" standalone="no"?>
<!DOCTYPE svg PUBLIC "-//W3C//DTD SVG 20010904//EN"
 "http://www.w3.org/TR/2001/REC-SVG-20010904/DTD/svg10.dtd">
<svg version="1.0" xmlns="http://www.w3.org/2000/svg"
 width="400.000000pt" height="400.000000pt" viewBox="0 0 400.000000 400.000000"
 preserveAspectRatio="xMidYMid meet">
<metadata>
Created by potrace 1.14, written by Peter Selinger 2001-2017
</metadata>
<g transform="translate(0.000000,400.000000) scale(0.100000,-0.100000)"
fill="#000000" stroke="none">
<path d="M1670 3857 c-19 -8 -46 -19 -60 -25 -14 -5 -53 -32 -86 -59 -34 -26
-78 -61 -98 -76 -59 -45 -167 -286 -151 -336 4 -13 -6 -30 -29 -53 -38 -38
-52 -79 -61 -183 -7 -74 17 -298 34 -319 5 -6 18 -34 29 -63 11 -28 37 -73 58
-98 l38 -47 17 49 c9 28 20 73 24 101 10 75 40 114 90 119 22 2 43 9 46 15 9
14 196 12 233 -2 14 -5 26 -6 26 -2 -1 19 -21 35 -47 37 -15 2 -32 3 -38 4 -5
1 5 10 23 21 61 37 123 129 136 200 32 170 51 204 123 220 30 7 46 5 76 -9 37
-18 77 -18 77 0 0 5 13 9 29 9 21 0 37 -10 56 -32 27 -32 28 -34 21 -131 -4
-72 -3 -106 8 -130 14 -35 69 -87 90 -87 35 0 107 -43 122 -72 17 -33 14 -128
-6 -194 -7 -25 -8 -22 -9 26 -1 36 -7 62 -19 76 -43 55 -168 86 -252 64 -102
-27 -150 -66 -150 -121 0 -16 -3 -18 -19 -9 -44 23 -141 2 -141 -31 0 -6 10
-3 22 5 27 19 96 20 119 3 9 -7 24 -35 33 -64 9 -28 24 -54 32 -57 11 -4 10 3
-5 32 -29 57 -35 103 -18 144 44 105 306 115 373 13 32 -48 -7 -181 -69 -239
-47 -44 -120 -55 -192 -31 -14 4 -12 2 5 -9 29 -18 106 -21 147 -5 53 20 121
104 124 156 1 10 5 -13 10 -50 4 -38 10 -75 13 -83 10 -25 26 -5 26 32 0 24 8
43 25 60 14 14 25 30 25 36 0 6 9 8 20 5 13 -3 20 0 20 9 0 8 6 14 13 14 7 0
19 17 26 38 7 20 27 66 43 102 54 118 80 210 85 306 5 78 3 97 -16 138 -11 27
-21 61 -21 77 0 33 -38 139 -50 139 -4 0 -22 22 -39 49 -42 65 -116 133 -179
165 -64 33 -147 35 -211 6 -55 -25 -58 -25 -65 4 -9 35 -95 108 -152 130 -65
25 -283 33 -334 13z"/>
<path d="M2120 2925 c-41 -15 -58 -52 -18 -39 73 23 172 26 271 9 24 -5 37 -3
37 4 0 6 -9 11 -21 11 -11 0 -29 4 -39 10 -30 16 -190 20 -230 5z"/>
<path d="M1539 2855 c-55 -15 -93 -41 -108 -73 -17 -36 -13 -106 10 -159 21
-51 84 -123 106 -123 7 0 -6 19 -30 43 -61 58 -93 144 -77 203 22 77 70 104
184 104 81 0 155 -21 182 -52 26 -28 24 -110 -4 -164 -47 -92 -101 -133 -187
-145 l-50 -6 48 -2 c61 -1 106 20 151 70 55 60 80 116 79 178 -1 43 -7 59 -27
80 -51 54 -176 74 -277 46z"/>
<path d="M2161 2740 c-24 -11 -41 -23 -38 -26 3 -3 14 -1 25 5 31 16 37 14 40
-16 3 -34 25 -58 46 -50 20 8 37 51 29 73 -5 15 0 16 42 10 26 -4 54 -10 61
-13 8 -3 14 -1 14 5 0 10 -97 32 -144 32 -17 0 -51 -9 -75 -20z"/>
<path d="M1543 2737 c-23 -7 -45 -16 -50 -21 -7 -8 5 -7 87 10 28 6 30 4 30
-21 0 -35 26 -66 48 -58 24 9 32 23 32 57 0 23 3 27 18 21 41 -17 54 -15 22 4
-40 23 -119 26 -187 8z"/>
<path d="M1836 2503 c-10 -84 -9 -104 1 -114 4 -4 9 35 11 87 1 52 1 94 -1 94
-2 0 -7 -30 -11 -67z"/>
<path d="M1605 2450 c-3 -5 -1 -10 4 -10 6 0 11 5 11 10 0 6 -2 10 -4 10 -3 0
-8 -4 -11 -10z"/>
<path d="M2077 2434 c-4 -4 -7 -14 -7 -23 0 -11 3 -12 11 -4 6 6 10 16 7 23
-2 6 -7 8 -11 4z"/>
<path d="M1980 2358 c-14 -5 -37 -8 -52 -5 -30 4 -38 -7 -12 -17 26 -10 59 -7
80 8 25 19 16 26 -16 14z"/>
</g>
</svg>
